<?xml version="1.0" encoding="UTF-8" standalone="no"?>
<!DOCTYPE svg PUBLIC "-//W3C//DTD SVG 1.1//EN" "http://www.w3.org/Graphics/SVG/1.1/DTD/svg11.dtd">
<svg width="100%" height="100%" viewBox="0 0 625 771" version="1.1" xmlns="http://www.w3.org/2000/svg" xmlns:xlink="http://www.w3.org/1999/xlink" xml:space="preserve" xmlns:serif="http://www.serif.com/" style="fill-rule:evenodd;clip-rule:evenodd;stroke-linejoin:round;stroke-miterlimit:2;">
    <g transform="matrix(1,0,0,1,-5903.02,-8838.57)">
        <g id="Page-14" serif:id="Page 14" transform="matrix(4.16667,0,0,4.16667,5903.02,8838.57)">
            <rect x="0" y="0" width="150" height="185" style="fill:none;"/>
            <g id="Layer-1" serif:id="Layer 1">
                <g transform="matrix(0,-1,-1,0,53.2993,134.637)">
                    <path d="M-24.112,-24.112C-37.429,-24.112 -48.224,-13.317 -48.224,0C-48.224,13.316 -37.429,24.112 -24.112,24.112C-10.795,24.112 0,13.316 0,0C0,-13.317 -10.795,-24.112 -24.112,-24.112" style="fill:rgb(35,31,32);fill-rule:nonzero;"/>
                </g>
                <g transform="matrix(0,-1,-1,0,123.995,68.8102)">
                    <path d="M-24.112,-24.112C-37.429,-24.112 -48.224,-13.317 -48.224,0C-48.224,13.316 -37.429,24.112 -24.112,24.112C-10.795,24.112 0,13.316 0,0C0,-13.317 -10.795,-24.112 -24.112,-24.112" style="fill:rgb(35,31,32);fill-rule:nonzero;"/>
                </g>
                <g transform="matrix(0,-1,-1,0,53.2993,1.2944)">
                    <path d="M-24.112,-24.112C-37.429,-24.112 -48.224,-13.317 -48.224,0C-48.224,13.316 -37.429,24.112 -24.112,24.112C-10.795,24.112 0,13.316 0,0C0,-13.317 -10.795,-24.112 -24.112,-24.112" style="fill:rgb(35,31,32);fill-rule:nonzero;"/>
                </g>
                <g transform="matrix(0,-1,-1,0,53.2993,67.9657)">
                    <path d="M-24.112,-24.112C-37.429,-24.112 -48.224,-13.317 -48.224,0C-48.224,13.316 -37.429,24.112 -24.112,24.112C-10.795,24.112 0,13.316 0,0C0,-13.317 -10.795,-24.112 -24.112,-24.112" style="fill:rgb(35,31,32);fill-rule:nonzero;"/>
                </g>
                <g transform="matrix(0,-1,-1,0,123.995,2.1389)">
                    <path d="M-24.112,-24.112C-37.429,-24.112 -48.224,-13.317 -48.224,0C-48.224,13.316 -37.429,24.112 -24.112,24.112C-10.795,24.112 0,13.316 0,0C0,-13.317 -10.795,-24.112 -24.112,-24.112" style="fill:rgb(35,31,32);fill-rule:nonzero;"/>
                </g>
                <g transform="matrix(0,-1,-1,0,123.995,135.482)">
                    <path d="M-24.112,-24.112C-37.429,-24.112 -48.224,-13.317 -48.224,0C-48.224,13.316 -37.429,24.112 -24.112,24.112C-10.795,24.112 0,13.316 0,0C0,-13.317 -10.795,-24.112 -24.112,-24.112" style="fill:rgb(35,31,32);fill-rule:nonzero;"/>
                </g>
                <g transform="matrix(-1,0,0,1,10.962,-0.844)">
                    <rect x="1.893" y="2.139" width="7.176" height="181.566" style="fill:rgb(35,31,32);"/>
                </g>
            </g>
        </g>
    </g>
</svg>
