<?xml version="1.0" encoding="UTF-8" standalone="no"?>
<!DOCTYPE svg PUBLIC "-//W3C//DTD SVG 1.1//EN" "http://www.w3.org/Graphics/SVG/1.1/DTD/svg11.dtd">
<svg width="100%" height="100%" viewBox="0 0 259 219" version="1.1" xmlns="http://www.w3.org/2000/svg" xmlns:xlink="http://www.w3.org/1999/xlink" xml:space="preserve" xmlns:serif="http://www.serif.com/" style="fill-rule:evenodd;clip-rule:evenodd;stroke-linejoin:round;stroke-miterlimit:2;">
    <g transform="matrix(1,0,0,1,-244.58,-27.0764)">
        <g transform="matrix(1.93797,0,0,1.87023,-22637.2,-11795.1)">
            <g transform="matrix(1,0,0,1,11556.2,6201.19)">
                <path d="M290.147,124.792C289.467,124.792 288.902,124.567 288.452,124.117C288.002,123.667 287.777,123.102 287.777,122.422C287.777,121.722 287.997,121.152 288.437,120.712C288.877,120.272 289.447,120.052 290.147,120.052C290.847,120.052 291.417,120.272 291.857,120.712C292.297,121.152 292.517,121.722 292.517,122.422C292.517,123.102 292.292,123.667 291.842,124.117C291.392,124.567 290.827,124.792 290.147,124.792ZM288.347,141.952C288.247,141.952 288.162,141.917 288.092,141.847C288.022,141.777 287.987,141.692 287.987,141.592L287.987,126.862C287.987,126.762 288.022,126.677 288.092,126.607C288.162,126.537 288.247,126.502 288.347,126.502L291.857,126.502C291.957,126.502 292.042,126.537 292.112,126.607C292.182,126.677 292.217,126.762 292.217,126.862L292.217,141.592C292.217,141.692 292.182,141.777 292.112,141.847C292.042,141.917 291.957,141.952 291.857,141.952L288.347,141.952Z" style="fill-rule:nonzero;"/>
            </g>
            <g transform="matrix(1,0,0,1,11562.3,6206.9)">
                <path d="M303.557,126.292C305.157,126.292 306.447,126.782 307.427,127.762C308.407,128.742 308.897,130.072 308.897,131.752L308.897,141.592C308.897,141.692 308.862,141.777 308.792,141.847C308.722,141.917 308.637,141.952 308.537,141.952L305.027,141.952C304.927,141.952 304.842,141.917 304.772,141.847C304.702,141.777 304.667,141.692 304.667,141.592L304.667,132.622C304.667,131.822 304.442,131.172 303.992,130.672C303.542,130.172 302.947,129.922 302.207,129.922C301.467,129.922 300.872,130.172 300.422,130.672C299.972,131.172 299.747,131.822 299.747,132.622L299.747,141.592C299.747,141.692 299.712,141.777 299.642,141.847C299.572,141.917 299.487,141.952 299.387,141.952L295.877,141.952C295.777,141.952 295.692,141.917 295.622,141.847C295.552,141.777 295.517,141.692 295.517,141.592L295.517,126.892C295.517,126.792 295.552,126.707 295.622,126.637C295.692,126.567 295.777,126.532 295.877,126.532L299.387,126.532C299.487,126.532 299.572,126.567 299.642,126.637C299.712,126.707 299.747,126.792 299.747,126.892L299.747,127.942C299.747,128.002 299.767,128.042 299.807,128.062C299.847,128.082 299.877,128.072 299.897,128.032C300.717,126.872 301.937,126.292 303.557,126.292Z" style="fill-rule:nonzero;"/>
            </g>
            <g transform="matrix(1,0,0,1,11572.8,6209.35)">
                <path d="M240.557,168.532C242.357,168.532 243.747,168.992 244.727,169.912C245.707,170.832 246.197,172.052 246.197,173.572L246.197,183.652C246.197,183.852 246.097,183.952 245.897,183.952L244.367,183.952C244.167,183.952 244.067,183.852 244.067,183.652L244.067,182.422C244.067,182.382 244.052,182.352 244.022,182.332C243.992,182.312 243.957,182.322 243.917,182.362C243.417,182.962 242.767,183.417 241.967,183.727C241.167,184.037 240.277,184.192 239.297,184.192C237.877,184.192 236.687,183.832 235.727,183.112C234.767,182.392 234.287,181.292 234.287,179.812C234.287,178.312 234.832,177.127 235.922,176.257C237.012,175.387 238.527,174.952 240.467,174.952L243.947,174.952C244.027,174.952 244.067,174.912 244.067,174.832L244.067,173.692C244.067,172.672 243.782,171.867 243.212,171.277C242.642,170.687 241.757,170.392 240.557,170.392C239.597,170.392 238.817,170.577 238.217,170.947C237.617,171.317 237.247,171.832 237.107,172.492C237.047,172.692 236.927,172.782 236.747,172.762L235.127,172.552C234.907,172.512 234.817,172.432 234.857,172.312C235.017,171.192 235.617,170.282 236.657,169.582C237.697,168.882 238.997,168.532 240.557,168.532ZM239.717,182.362C240.897,182.362 241.917,182.067 242.777,181.477C243.637,180.887 244.067,180.092 244.067,179.092L244.067,176.752C244.067,176.672 244.027,176.632 243.947,176.632L240.797,176.632C239.477,176.632 238.417,176.902 237.617,177.442C236.817,177.982 236.417,178.732 236.417,179.692C236.417,180.572 236.722,181.237 237.332,181.687C237.942,182.137 238.737,182.362 239.717,182.362Z" style="fill-rule:nonzero;"/>
            </g>
            <g transform="matrix(1,0,0,1,11572.8,6213.25)">
                <path d="M256.937,168.562C258.537,168.562 259.812,169.032 260.762,169.972C261.712,170.912 262.187,172.172 262.187,173.752L262.187,183.652C262.187,183.852 262.087,183.952 261.887,183.952L260.357,183.952C260.157,183.952 260.057,183.852 260.057,183.652L260.057,174.172C260.057,173.072 259.722,172.172 259.052,171.472C258.382,170.772 257.517,170.422 256.457,170.422C255.357,170.422 254.467,170.762 253.787,171.442C253.107,172.122 252.767,173.012 252.767,174.112L252.767,183.652C252.767,183.852 252.667,183.952 252.467,183.952L250.937,183.952C250.737,183.952 250.637,183.852 250.637,183.652L250.637,169.072C250.637,168.872 250.737,168.772 250.937,168.772L252.467,168.772C252.667,168.772 252.767,168.872 252.767,169.072L252.767,170.362C252.767,170.402 252.782,170.432 252.812,170.452C252.842,170.472 252.867,170.462 252.887,170.422C253.767,169.182 255.117,168.562 256.937,168.562Z" style="fill-rule:nonzero;"/>
            </g>
            <g transform="matrix(1,0,0,1,11572.8,6195.35)">
                <path d="M276.017,163.252C276.017,163.052 276.117,162.952 276.317,162.952L277.847,162.952C278.047,162.952 278.147,163.052 278.147,163.252L278.147,183.652C278.147,183.852 278.047,183.952 277.847,183.952L276.317,183.952C276.117,183.952 276.017,183.852 276.017,183.652L276.017,182.392C276.017,182.352 276.002,182.327 275.972,182.317C275.942,182.307 275.907,182.322 275.867,182.362C275.427,182.942 274.882,183.392 274.232,183.712C273.582,184.032 272.857,184.192 272.057,184.192C270.657,184.192 269.482,183.832 268.532,183.112C267.582,182.392 266.927,181.412 266.567,180.172C266.287,179.272 266.147,178.002 266.147,176.362C266.147,174.702 266.267,173.462 266.507,172.642C266.867,171.362 267.527,170.357 268.487,169.627C269.447,168.897 270.637,168.532 272.057,168.532C272.837,168.532 273.557,168.687 274.217,168.997C274.877,169.307 275.427,169.752 275.867,170.332C275.907,170.372 275.942,170.387 275.972,170.377C276.002,170.367 276.017,170.342 276.017,170.302L276.017,163.252ZM275.477,180.022C275.657,179.622 275.787,179.152 275.867,178.612C275.947,178.072 275.987,177.322 275.987,176.362C275.987,175.402 275.947,174.647 275.867,174.097C275.787,173.547 275.647,173.062 275.447,172.642C275.207,171.962 274.812,171.417 274.262,171.007C273.712,170.597 273.057,170.392 272.297,170.392C271.497,170.392 270.807,170.592 270.227,170.992C269.647,171.392 269.227,171.922 268.967,172.582C268.727,173.022 268.552,173.517 268.442,174.067C268.332,174.617 268.277,175.382 268.277,176.362C268.277,177.302 268.317,178.037 268.397,178.567C268.477,179.097 268.617,179.572 268.817,179.992C269.057,180.712 269.482,181.282 270.092,181.702C270.702,182.122 271.427,182.332 272.267,182.332C273.067,182.332 273.737,182.122 274.277,181.702C274.817,181.282 275.217,180.722 275.477,180.022Z" style="fill-rule:nonzero;"/>
            </g>
            <g transform="matrix(1,0,0,1,11572.8,6197.37)">
                <path d="M294.287,168.292C295.587,168.292 296.747,168.517 297.767,168.967C298.787,169.417 299.582,170.032 300.152,170.812C300.722,171.592 301.007,172.462 301.007,173.422L301.007,183.592C301.007,183.692 300.972,183.777 300.902,183.847C300.832,183.917 300.747,183.952 300.647,183.952L297.137,183.952C297.037,183.952 296.952,183.917 296.882,183.847C296.812,183.777 296.777,183.692 296.777,183.592L296.777,182.602C296.777,182.542 296.757,182.502 296.717,182.482C296.677,182.462 296.637,182.482 296.597,182.542C295.757,183.642 294.407,184.192 292.547,184.192C290.987,184.192 289.727,183.812 288.767,183.052C287.807,182.292 287.327,181.172 287.327,179.692C287.327,178.152 287.867,176.957 288.947,176.107C290.027,175.257 291.567,174.832 293.567,174.832L296.627,174.832C296.727,174.832 296.777,174.782 296.777,174.682L296.777,174.022C296.777,173.362 296.577,172.847 296.177,172.477C295.777,172.107 295.177,171.922 294.377,171.922C293.757,171.922 293.242,172.032 292.832,172.252C292.422,172.472 292.157,172.782 292.037,173.182C291.977,173.402 291.847,173.502 291.647,173.482L288.017,173.002C287.777,172.962 287.667,172.872 287.687,172.732C287.767,171.892 288.102,171.132 288.692,170.452C289.282,169.772 290.062,169.242 291.032,168.862C292.002,168.482 293.087,168.292 294.287,168.292ZM293.687,181.042C294.547,181.042 295.277,180.812 295.877,180.352C296.477,179.892 296.777,179.302 296.777,178.582L296.777,177.502C296.777,177.402 296.727,177.352 296.627,177.352L294.467,177.352C293.567,177.352 292.862,177.522 292.352,177.862C291.842,178.202 291.587,178.682 291.587,179.302C291.587,179.842 291.777,180.267 292.157,180.577C292.537,180.887 293.047,181.042 293.687,181.042Z" style="fill-rule:nonzero;"/>
            </g>
            <g transform="matrix(1,0,0,1,11573.1,6187.91)">
                <path d="M317.627,172.462C318.007,173.502 318.197,174.742 318.197,176.182C318.197,177.562 318.027,178.772 317.687,179.812C317.227,181.172 316.492,182.242 315.482,183.022C314.472,183.802 313.277,184.192 311.897,184.192C310.437,184.192 309.287,183.642 308.447,182.542C308.407,182.502 308.367,182.487 308.327,182.497C308.287,182.507 308.267,182.542 308.267,182.602L308.267,183.592C308.267,183.692 308.232,183.777 308.162,183.847C308.092,183.917 308.007,183.952 307.907,183.952L304.397,183.952C304.297,183.952 304.212,183.917 304.142,183.847C304.072,183.777 304.037,183.692 304.037,183.592L304.037,163.312C304.037,163.212 304.072,163.127 304.142,163.057C304.212,162.987 304.297,162.952 304.397,162.952L307.907,162.952C308.007,162.952 308.092,162.987 308.162,163.057C308.232,163.127 308.267,163.212 308.267,163.312L308.267,169.732C308.267,169.792 308.287,169.832 308.327,169.852C308.367,169.872 308.407,169.852 308.447,169.792C309.227,168.792 310.337,168.292 311.777,168.292C313.237,168.292 314.462,168.667 315.452,169.417C316.442,170.167 317.167,171.182 317.627,172.462ZM313.187,179.272C313.607,178.512 313.817,177.512 313.817,176.272C313.817,174.892 313.577,173.832 313.097,173.092C312.617,172.312 311.907,171.922 310.967,171.922C310.087,171.922 309.417,172.312 308.957,173.092C308.517,173.852 308.297,174.902 308.297,176.242C308.297,177.582 308.497,178.592 308.897,179.272C309.377,180.132 310.077,180.562 310.997,180.562C311.977,180.562 312.707,180.132 313.187,179.272Z" style="fill-rule:nonzero;"/>
            </g>
            <g transform="matrix(1,0,0,1,11574.8,6201.53)">
                <path d="M327.677,184.192C325.997,184.192 324.557,183.752 323.357,182.872C322.157,181.992 321.337,180.792 320.897,179.272C320.617,178.332 320.477,177.312 320.477,176.212C320.477,175.032 320.617,173.972 320.897,173.032C321.357,171.552 322.187,170.392 323.387,169.552C324.587,168.712 326.027,168.292 327.707,168.292C329.347,168.292 330.747,168.707 331.907,169.537C333.067,170.367 333.887,171.522 334.367,173.002C334.687,174.002 334.847,175.052 334.847,176.152C334.847,177.232 334.707,178.242 334.427,179.182C333.987,180.742 333.172,181.967 331.982,182.857C330.792,183.747 329.357,184.192 327.677,184.192ZM327.677,180.562C328.337,180.562 328.897,180.362 329.357,179.962C329.817,179.562 330.147,179.012 330.347,178.312C330.507,177.672 330.587,176.972 330.587,176.212C330.587,175.372 330.507,174.662 330.347,174.082C330.127,173.402 329.787,172.872 329.327,172.492C328.867,172.112 328.307,171.922 327.647,171.922C326.967,171.922 326.402,172.112 325.952,172.492C325.502,172.872 325.177,173.402 324.977,174.082C324.817,174.562 324.737,175.272 324.737,176.212C324.737,177.112 324.807,177.812 324.947,178.312C325.147,179.012 325.482,179.562 325.952,179.962C326.422,180.362 326.997,180.562 327.677,180.562Z" style="fill-rule:nonzero;"/>
            </g>
            <g transform="matrix(1,0,0,1,11576.8,6205.46)">
                <path d="M346.577,168.892C346.577,168.792 346.612,168.707 346.682,168.637C346.752,168.567 346.837,168.532 346.937,168.532L350.447,168.532C350.547,168.532 350.632,168.567 350.702,168.637C350.772,168.707 350.807,168.792 350.807,168.892L350.807,183.592C350.807,183.692 350.772,183.777 350.702,183.847C350.632,183.917 350.547,183.952 350.447,183.952L346.937,183.952C346.837,183.952 346.752,183.917 346.682,183.847C346.612,183.777 346.577,183.692 346.577,183.592L346.577,182.572C346.577,182.512 346.557,182.477 346.517,182.467C346.477,182.457 346.437,182.482 346.397,182.542C345.597,183.622 344.357,184.162 342.677,184.162C341.157,184.162 339.907,183.702 338.927,182.782C337.947,181.862 337.457,180.572 337.457,178.912L337.457,168.892C337.457,168.792 337.492,168.707 337.562,168.637C337.632,168.567 337.717,168.532 337.817,168.532L341.297,168.532C341.397,168.532 341.482,168.567 341.552,168.637C341.622,168.707 341.657,168.792 341.657,168.892L341.657,177.862C341.657,178.662 341.872,179.312 342.302,179.812C342.732,180.312 343.327,180.562 344.087,180.562C344.767,180.562 345.327,180.357 345.767,179.947C346.207,179.537 346.477,179.002 346.577,178.342L346.577,168.892Z" style="fill-rule:nonzero;"/>
            </g>
            <g transform="matrix(1,0,0,1,11577.8,6193.36)">
                <path d="M362.777,171.562C362.777,171.662 362.742,171.747 362.672,171.817C362.602,171.887 362.517,171.922 362.417,171.922L359.537,171.922C359.437,171.922 359.387,171.972 359.387,172.072L359.387,178.432C359.387,179.092 359.522,179.582 359.792,179.902C360.062,180.222 360.497,180.382 361.097,180.382L362.087,180.382C362.187,180.382 362.272,180.417 362.342,180.487C362.412,180.557 362.447,180.642 362.447,180.742L362.447,183.592C362.447,183.812 362.327,183.942 362.087,183.982C361.247,184.022 360.647,184.042 360.287,184.042C358.627,184.042 357.387,183.767 356.567,183.217C355.747,182.667 355.327,181.632 355.307,180.112L355.307,172.072C355.307,171.972 355.257,171.922 355.157,171.922L353.447,171.922C353.347,171.922 353.262,171.887 353.192,171.817C353.122,171.747 353.087,171.662 353.087,171.562L353.087,168.892C353.087,168.792 353.122,168.707 353.192,168.637C353.262,168.567 353.347,168.532 353.447,168.532L355.157,168.532C355.257,168.532 355.307,168.482 355.307,168.382L355.307,164.812C355.307,164.712 355.342,164.627 355.412,164.557C355.482,164.487 355.567,164.452 355.667,164.452L359.027,164.452C359.127,164.452 359.212,164.487 359.282,164.557C359.352,164.627 359.387,164.712 359.387,164.812L359.387,168.382C359.387,168.482 359.437,168.532 359.537,168.532L362.417,168.532C362.517,168.532 362.602,168.567 362.672,168.637C362.742,168.707 362.777,168.792 362.777,168.892L362.777,171.562Z" style="fill-rule:nonzero;"/>
            </g>
            <g transform="matrix(1,0,0,1,11572.8,6207.55)">
                <path d="M265.607,226.192C264.007,226.192 262.622,225.792 261.452,224.992C260.282,224.192 259.447,223.092 258.947,221.692C258.607,220.692 258.437,219.512 258.437,218.152C258.437,216.812 258.607,215.652 258.947,214.672C259.427,213.312 260.257,212.242 261.437,211.462C262.617,210.682 264.007,210.292 265.607,210.292C267.207,210.292 268.612,210.692 269.822,211.492C271.032,212.292 271.837,213.302 272.237,214.522C272.397,215.002 272.477,215.362 272.477,215.602L272.477,215.662C272.477,215.842 272.377,215.952 272.177,215.992L268.727,216.502L268.667,216.502C268.487,216.502 268.367,216.402 268.307,216.202L268.217,215.722C268.077,215.202 267.767,214.772 267.287,214.432C266.807,214.092 266.237,213.922 265.577,213.922C264.937,213.922 264.397,214.082 263.957,214.402C263.517,214.722 263.207,215.162 263.027,215.722C262.807,216.322 262.697,217.142 262.697,218.182C262.697,219.222 262.797,220.042 262.997,220.642C263.177,221.242 263.492,221.712 263.942,222.052C264.392,222.392 264.937,222.562 265.577,222.562C266.197,222.562 266.742,222.397 267.212,222.067C267.682,221.737 268.007,221.282 268.187,220.702C268.207,220.662 268.217,220.602 268.217,220.522C268.237,220.502 268.247,220.472 268.247,220.432C268.267,220.192 268.407,220.092 268.667,220.132L272.117,220.672C272.317,220.712 272.417,220.822 272.417,221.002C272.417,221.162 272.357,221.462 272.237,221.902C271.817,223.242 271.002,224.292 269.792,225.052C268.582,225.812 267.187,226.192 265.607,226.192Z" style="fill-rule:nonzero;"/>
            </g>
            <g transform="matrix(1,0,0,1,11572.8,6191.58)">
                <path d="M277.217,208.792C276.537,208.792 275.972,208.567 275.522,208.117C275.072,207.667 274.847,207.102 274.847,206.422C274.847,205.722 275.067,205.152 275.507,204.712C275.947,204.272 276.517,204.052 277.217,204.052C277.917,204.052 278.487,204.272 278.927,204.712C279.367,205.152 279.587,205.722 279.587,206.422C279.587,207.102 279.362,207.667 278.912,208.117C278.462,208.567 277.897,208.792 277.217,208.792ZM275.417,225.952C275.317,225.952 275.232,225.917 275.162,225.847C275.092,225.777 275.057,225.692 275.057,225.592L275.057,210.862C275.057,210.762 275.092,210.677 275.162,210.607C275.232,210.537 275.317,210.502 275.417,210.502L278.927,210.502C279.027,210.502 279.112,210.537 279.182,210.607C279.252,210.677 279.287,210.762 279.287,210.862L279.287,225.592C279.287,225.692 279.252,225.777 279.182,225.847C279.112,225.917 279.027,225.952 278.927,225.952L275.417,225.952Z" style="fill-rule:nonzero;"/>
            </g>
            <g transform="matrix(1,0,0,1,11572.8,6199.34)">
                <path d="M291.437,213.562C291.437,213.662 291.402,213.747 291.332,213.817C291.262,213.887 291.177,213.922 291.077,213.922L288.197,213.922C288.097,213.922 288.047,213.972 288.047,214.072L288.047,220.432C288.047,221.092 288.182,221.582 288.452,221.902C288.722,222.222 289.157,222.382 289.757,222.382L290.747,222.382C290.847,222.382 290.932,222.417 291.002,222.487C291.072,222.557 291.107,222.642 291.107,222.742L291.107,225.592C291.107,225.812 290.987,225.942 290.747,225.982C289.907,226.022 289.307,226.042 288.947,226.042C287.287,226.042 286.047,225.767 285.227,225.217C284.407,224.667 283.987,223.632 283.967,222.112L283.967,214.072C283.967,213.972 283.917,213.922 283.817,213.922L282.107,213.922C282.007,213.922 281.922,213.887 281.852,213.817C281.782,213.747 281.747,213.662 281.747,213.562L281.747,210.892C281.747,210.792 281.782,210.707 281.852,210.637C281.922,210.567 282.007,210.532 282.107,210.532L283.817,210.532C283.917,210.532 283.967,210.482 283.967,210.382L283.967,206.812C283.967,206.712 284.002,206.627 284.072,206.557C284.142,206.487 284.227,206.452 284.327,206.452L287.687,206.452C287.787,206.452 287.872,206.487 287.942,206.557C288.012,206.627 288.047,206.712 288.047,206.812L288.047,210.382C288.047,210.482 288.097,210.532 288.197,210.532L291.077,210.532C291.177,210.532 291.262,210.567 291.332,210.637C291.402,210.707 291.437,210.792 291.437,210.892L291.437,213.562Z" style="fill-rule:nonzero;"/>
            </g>
            <g transform="matrix(1,0,0,1,11572.8,6181.41)">
                <path d="M296.267,208.792C295.587,208.792 295.022,208.567 294.572,208.117C294.122,207.667 293.897,207.102 293.897,206.422C293.897,205.722 294.117,205.152 294.557,204.712C294.997,204.272 295.567,204.052 296.267,204.052C296.967,204.052 297.537,204.272 297.977,204.712C298.417,205.152 298.637,205.722 298.637,206.422C298.637,207.102 298.412,207.667 297.962,208.117C297.512,208.567 296.947,208.792 296.267,208.792ZM294.467,225.952C294.367,225.952 294.282,225.917 294.212,225.847C294.142,225.777 294.107,225.692 294.107,225.592L294.107,210.862C294.107,210.762 294.142,210.677 294.212,210.607C294.282,210.537 294.367,210.502 294.467,210.502L297.977,210.502C298.077,210.502 298.162,210.537 298.232,210.607C298.302,210.677 298.337,210.762 298.337,210.862L298.337,225.592C298.337,225.692 298.302,225.777 298.232,225.847C298.162,225.917 298.077,225.952 297.977,225.952L294.467,225.952Z" style="fill-rule:nonzero;"/>
            </g>
            <g transform="matrix(1,0,0,1,11572.8,6203.39)">
                <path d="M315.287,216.652C315.407,217.412 315.447,218.262 315.407,219.202C315.387,219.442 315.257,219.562 315.017,219.562L305.747,219.562C305.627,219.562 305.587,219.612 305.627,219.712C305.687,220.112 305.797,220.512 305.957,220.912C306.477,222.032 307.537,222.592 309.137,222.592C310.417,222.572 311.427,222.052 312.167,221.032C312.247,220.912 312.337,220.852 312.437,220.852C312.497,220.852 312.567,220.892 312.647,220.972L314.807,223.102C314.907,223.202 314.957,223.292 314.957,223.372C314.957,223.412 314.917,223.492 314.837,223.612C314.177,224.432 313.327,225.067 312.287,225.517C311.247,225.967 310.107,226.192 308.867,226.192C307.147,226.192 305.692,225.802 304.502,225.022C303.312,224.242 302.457,223.152 301.937,221.752C301.517,220.752 301.307,219.442 301.307,217.822C301.307,216.722 301.457,215.752 301.757,214.912C302.217,213.492 303.022,212.362 304.172,211.522C305.322,210.682 306.687,210.262 308.267,210.262C310.267,210.262 311.872,210.842 313.082,212.002C314.292,213.162 315.027,214.712 315.287,216.652ZM308.297,213.922C307.037,213.922 306.207,214.512 305.807,215.692C305.727,215.952 305.657,216.272 305.597,216.652C305.597,216.752 305.647,216.802 305.747,216.802L310.937,216.802C311.057,216.802 311.097,216.752 311.057,216.652C310.957,216.072 310.907,215.792 310.907,215.812C310.727,215.212 310.412,214.747 309.962,214.417C309.512,214.087 308.957,213.922 308.297,213.922Z" style="fill-rule:nonzero;"/>
            </g>
            <g transform="matrix(1,0,0,1,11572.8,6211.68)">
                <path d="M323.957,226.162C322.617,226.162 321.447,225.972 320.447,225.592C319.447,225.212 318.672,224.682 318.122,224.002C317.572,223.322 317.297,222.552 317.297,221.692L317.297,221.392C317.297,221.292 317.332,221.207 317.402,221.137C317.472,221.067 317.557,221.032 317.657,221.032L320.987,221.032C321.087,221.032 321.172,221.067 321.242,221.137C321.312,221.207 321.347,221.292 321.347,221.392L321.347,221.422C321.347,221.862 321.592,222.237 322.082,222.547C322.572,222.857 323.187,223.012 323.927,223.012C324.607,223.012 325.157,222.877 325.577,222.607C325.997,222.337 326.207,222.002 326.207,221.602C326.207,221.242 326.027,220.972 325.667,220.792C325.307,220.612 324.717,220.422 323.897,220.222C322.957,219.982 322.217,219.752 321.677,219.532C320.397,219.092 319.377,218.552 318.617,217.912C317.857,217.272 317.477,216.352 317.477,215.152C317.477,213.672 318.052,212.497 319.202,211.627C320.352,210.757 321.877,210.322 323.777,210.322C325.057,210.322 326.177,210.527 327.137,210.937C328.097,211.347 328.842,211.922 329.372,212.662C329.902,213.402 330.167,214.242 330.167,215.182C330.167,215.282 330.132,215.367 330.062,215.437C329.992,215.507 329.907,215.542 329.807,215.542L326.597,215.542C326.497,215.542 326.412,215.507 326.342,215.437C326.272,215.367 326.237,215.282 326.237,215.182C326.237,214.742 326.012,214.372 325.562,214.072C325.112,213.772 324.517,213.622 323.777,213.622C323.117,213.622 322.577,213.742 322.157,213.982C321.737,214.222 321.527,214.552 321.527,214.972C321.527,215.372 321.732,215.672 322.142,215.872C322.552,216.072 323.237,216.282 324.197,216.502C324.417,216.562 324.667,216.627 324.947,216.697C325.227,216.767 325.527,216.852 325.847,216.952C327.267,217.372 328.387,217.912 329.207,218.572C330.027,219.232 330.437,220.192 330.437,221.452C330.437,222.932 329.852,224.087 328.682,224.917C327.512,225.747 325.937,226.162 323.957,226.162Z" style="fill-rule:nonzero;"/>
            </g>
            <g transform="matrix(1,0,0,1,11572.8,6210.78)">
                <path d="M335.207,226.072C334.527,226.072 333.962,225.847 333.512,225.397C333.062,224.947 332.837,224.382 332.837,223.702C332.837,223.002 333.057,222.432 333.497,221.992C333.937,221.552 334.507,221.332 335.207,221.332C335.907,221.332 336.477,221.552 336.917,221.992C337.357,222.432 337.577,223.002 337.577,223.702C337.577,224.382 337.352,224.947 336.902,225.397C336.452,225.847 335.887,226.072 335.207,226.072Z" style="fill-rule:nonzero;"/>
            </g>
        </g>
    </g>
</svg>
